<svg width="65" height="65" viewBox="0 0 65 65" fill="none" xmlns="http://www.w3.org/2000/svg">
<path d="M46.8349 6.20991C46.0417 7.00316 46.0417 8.27988 46.0417 10.8333V46.0417C46.0417 48.5951 46.0417 49.8718 46.8349 50.6651C47.6282 51.4583 48.9049 51.4583 51.4583 51.4583C54.0118 51.4583 55.2885 51.4583 56.0817 50.6651C56.875 49.8718 56.875 48.5951 56.875 46.0417V10.8333C56.875 8.27988 56.875 7.00316 56.0817 6.20991C55.2885 5.41666 54.0118 5.41666 51.4583 5.41666C48.9049 5.41666 47.6282 5.41666 46.8349 6.20991Z" fill="black"/>
<path d="M27.0833 18.9583C27.0833 16.4049 27.0833 15.1282 27.8766 14.3349C28.6698 13.5417 29.9466 13.5417 32.5 13.5417C35.0534 13.5417 36.3302 13.5417 37.1234 14.3349C37.9167 15.1282 37.9167 16.4049 37.9167 18.9583V46.0417C37.9167 48.5951 37.9167 49.8718 37.1234 50.6651C36.3302 51.4583 35.0534 51.4583 32.5 51.4583C29.9466 51.4583 28.6698 51.4583 27.8766 50.6651C27.0833 49.8718 27.0833 48.5951 27.0833 46.0417V18.9583Z" fill="black"/>
<path d="M8.91825 25.1682C8.125 25.9615 8.125 27.2382 8.125 29.7917V46.0417C8.125 48.5951 8.125 49.8718 8.91825 50.6651C9.7115 51.4583 10.9882 51.4583 13.5417 51.4583C16.0951 51.4583 17.3718 51.4583 18.1651 50.6651C18.9583 49.8718 18.9583 48.5951 18.9583 46.0417V29.7917C18.9583 27.2382 18.9583 25.9615 18.1651 25.1682C17.3718 24.375 16.0951 24.375 13.5417 24.375C10.9882 24.375 9.7115 24.375 8.91825 25.1682Z" fill="black"/>
<path d="M8.125 57.5521C7.00317 57.5521 6.09375 58.4615 6.09375 59.5833C6.09375 60.7052 7.00317 61.6146 8.125 61.6146H56.875C57.9968 61.6146 58.9062 60.7052 58.9062 59.5833C58.9062 58.4615 57.9968 57.5521 56.875 57.5521H8.125Z" fill="black"/>
<path d="M46.8349 6.20991C46.0417 7.00316 46.0417 8.27988 46.0417 10.8333V46.0417C46.0417 48.5951 46.0417 49.8718 46.8349 50.6651C47.6282 51.4583 48.9049 51.4583 51.4583 51.4583C54.0118 51.4583 55.2885 51.4583 56.0817 50.6651C56.875 49.8718 56.875 48.5951 56.875 46.0417V10.8333C56.875 8.27988 56.875 7.00316 56.0817 6.20991C55.2885 5.41666 54.0118 5.41666 51.4583 5.41666C48.9049 5.41666 47.6282 5.41666 46.8349 6.20991Z" stroke="black" stroke-width="2"/>
<path d="M27.0833 18.9583C27.0833 16.4049 27.0833 15.1282 27.8766 14.3349C28.6698 13.5417 29.9466 13.5417 32.5 13.5417C35.0534 13.5417 36.3302 13.5417 37.1234 14.3349C37.9167 15.1282 37.9167 16.4049 37.9167 18.9583V46.0417C37.9167 48.5951 37.9167 49.8718 37.1234 50.6651C36.3302 51.4583 35.0534 51.4583 32.5 51.4583C29.9466 51.4583 28.6698 51.4583 27.8766 50.6651C27.0833 49.8718 27.0833 48.5951 27.0833 46.0417V18.9583Z" stroke="black" stroke-width="2"/>
<path d="M8.91825 25.1682C8.125 25.9615 8.125 27.2382 8.125 29.7917V46.0417C8.125 48.5951 8.125 49.8718 8.91825 50.6651C9.7115 51.4583 10.9882 51.4583 13.5417 51.4583C16.0951 51.4583 17.3718 51.4583 18.1651 50.6651C18.9583 49.8718 18.9583 48.5951 18.9583 46.0417V29.7917C18.9583 27.2382 18.9583 25.9615 18.1651 25.1682C17.3718 24.375 16.0951 24.375 13.5417 24.375C10.9882 24.375 9.7115 24.375 8.91825 25.1682Z" stroke="black" stroke-width="2"/>
<path d="M8.125 57.5521C7.00317 57.5521 6.09375 58.4615 6.09375 59.5833C6.09375 60.7052 7.00317 61.6146 8.125 61.6146H56.875C57.9968 61.6146 58.9062 60.7052 58.9062 59.5833C58.9062 58.4615 57.9968 57.5521 56.875 57.5521H8.125Z" stroke="black" stroke-width="2"/>
</svg>
