<svg width="100" height="100" viewBox="0 0 100 100" fill="none" xmlns="http://www.w3.org/2000/svg">
<path fill-rule="evenodd" clip-rule="evenodd" d="M59.3757 18.6647L59.3756 31.405C59.375 31.8684 59.374 32.5291 59.4626 33.0963C59.571 33.7896 59.9276 35.1283 61.3137 35.9421C62.6486 36.7259 63.9543 36.4348 64.5748 36.2419C65.1159 36.0737 65.7091 35.7911 66.1515 35.5804L70.8341 33.3561L75.5166 35.5804C75.959 35.7911 76.5523 36.0737 77.0933 36.2419C77.7139 36.4348 79.0195 36.7259 80.3544 35.9421C81.7405 35.1283 82.0971 33.7897 82.2055 33.0963C82.2942 32.5292 82.2932 31.8685 82.2925 31.4051L82.2924 12.6304C82.7623 12.6083 83.2239 12.5897 83.6749 12.5739C88.1407 12.4184 91.6667 16.0864 91.6667 20.555V67.2649C91.6667 71.894 87.8915 75.6394 83.2714 75.9284C79.2322 76.181 74.4863 76.6751 70.8333 77.639C66.3273 78.8281 60.9461 81.4019 56.7816 83.6219C55.619 84.2416 54.3877 84.6906 53.1257 84.9689V21.5578C54.4622 21.2304 55.76 20.7142 56.9743 20.0115C57.7422 19.5671 58.5474 19.1138 59.3757 18.6647ZM82.1991 53.4087C82.6177 55.0831 81.5997 56.7798 79.9253 57.1984L63.2587 61.365C61.5843 61.7836 59.8876 60.7656 59.469 59.0913C59.0505 57.4169 60.0685 55.7202 61.7428 55.3016L78.4095 51.135C80.0838 50.7164 81.7805 51.7344 82.1991 53.4087Z" fill="black"/>
<path fill-rule="evenodd" clip-rule="evenodd" d="M46.8757 21.7249C45.4831 21.4603 44.1223 20.991 42.8427 20.3144C38.7338 18.1417 33.5384 15.6846 29.1667 14.531C25.4729 13.5563 20.6616 13.0621 16.5933 12.812C12.0263 12.5313 8.33333 16.2485 8.33333 20.8242V67.2649C8.33333 71.894 12.1085 75.6394 16.7286 75.9284C20.7678 76.181 25.5137 76.6751 29.1667 77.639C33.6727 78.8281 39.0539 81.4019 43.2184 83.6219C44.3815 84.2419 45.6132 84.691 46.8757 84.9692V21.7249ZM17.8024 36.7421C18.221 35.0677 19.9176 34.0497 21.592 34.4683L38.2587 38.635C39.933 39.0536 40.951 40.7502 40.5324 42.4246C40.1138 44.099 38.4172 45.117 36.7428 44.6984L20.0761 40.5317C18.4018 40.1131 17.3838 38.4164 17.8024 36.7421ZM21.592 51.135C19.9176 50.7164 18.221 51.7344 17.8024 53.4087C17.3838 55.0831 18.4018 56.7798 20.0761 57.1984L36.7428 61.365C38.4172 61.7836 40.1138 60.7656 40.5324 59.0913C40.951 57.4169 39.933 55.7202 38.2587 55.3016L21.592 51.135Z" fill="black"/>
<path d="M76.0424 13.1292C73.4589 13.4346 70.9192 13.8816 68.75 14.531C67.7436 14.8323 66.6932 15.2142 65.6257 15.6517V16.4584V28.9108L68.7479 27.4277L68.7846 27.4092C68.9888 27.3048 69.8493 26.8649 70.8341 26.8649C71.0322 26.8649 71.2252 26.8827 71.4089 26.9119C72.1385 27.0283 72.7204 27.3258 72.8836 27.4092L72.9202 27.4277L76.0424 28.9108V15.1944V13.1292Z" fill="black"/>
</svg>
