<svg width="65" height="65" viewBox="0 0 65 65" fill="none" xmlns="http://www.w3.org/2000/svg">
<path fill-rule="evenodd" clip-rule="evenodd" d="M59.5833 32.5C59.5833 45.2672 59.5833 51.6508 55.6171 55.6171C51.6508 59.5833 45.2672 59.5833 32.5 59.5833C19.7328 59.5833 13.3492 59.5833 9.38293 55.6171C5.41667 51.6508 5.41667 45.2672 5.41667 32.5C5.41667 19.7328 5.41667 13.3492 9.38293 9.38292C13.3492 5.41666 19.7328 5.41666 32.5 5.41666C45.2672 5.41666 51.6508 5.41666 55.6171 9.38292C59.5833 13.3492 59.5833 19.7328 59.5833 32.5ZM47.2727 18.6968C48.165 19.3766 48.3373 20.6512 47.6574 21.5435L29.086 45.9185C28.7162 46.4039 28.1477 46.6973 27.5379 46.7176C26.928 46.7379 26.3414 46.483 25.9401 46.0234L17.4282 36.2734C16.6904 35.4283 16.7774 34.1451 17.6225 33.4073C18.4676 32.6695 19.7507 32.7565 20.4885 33.6016L27.3632 41.4763L44.4259 19.0815C45.1058 18.1891 46.3804 18.0169 47.2727 18.6968Z" fill="black"/>
<path fill-rule="evenodd" clip-rule="evenodd" d="M59.5833 32.5C59.5833 45.2672 59.5833 51.6508 55.6171 55.617C51.6508 59.5833 45.2672 59.5833 32.5 59.5833C19.7328 59.5833 13.3492 59.5833 9.38293 55.617C5.41667 51.6508 5.41667 45.2672 5.41667 32.5C5.41667 19.7328 5.41667 13.3492 9.38293 9.38289C13.3492 5.41663 19.7328 5.41663 32.5 5.41663C45.2672 5.41663 51.6508 5.41663 55.6171 9.38289C59.5833 13.3491 59.5833 19.7328 59.5833 32.5ZM47.2727 18.6967C48.165 19.3766 48.3373 20.6511 47.6574 21.5435L29.086 45.9185C28.7162 46.4039 28.1477 46.6973 27.5379 46.7176C26.928 46.7379 26.3414 46.483 25.9401 46.0233L17.4282 36.2733C16.6904 35.4282 16.7774 34.1451 17.6225 33.4073C18.4676 32.6695 19.7507 32.7565 20.4885 33.6016L27.3632 41.4763L44.4259 19.0814C45.1058 18.1891 46.3804 18.0169 47.2727 18.6967Z" fill="black"/>
</svg>
