<svg width="65" height="65" viewBox="0 0 65 65" fill="none" xmlns="http://www.w3.org/2000/svg">
<path fill-rule="evenodd" clip-rule="evenodd" d="M27.0833 10.8333H37.9167C48.1304 10.8333 53.2373 10.8333 56.4103 14.0064C59.5833 17.1794 59.5833 22.2862 59.5833 32.5C59.5833 42.7138 59.5833 47.8207 56.4103 50.9937C53.2373 54.1667 48.1304 54.1667 37.9167 54.1667H27.0833C16.8696 54.1667 11.7627 54.1667 8.58968 50.9937C5.41667 47.8207 5.41667 42.7138 5.41667 32.5C5.41667 22.2862 5.41667 17.1794 8.58968 14.0064C11.7627 10.8333 16.8696 10.8333 27.0833 10.8333ZM35.8854 24.375C35.8854 23.2532 36.7948 22.3438 37.9167 22.3438H51.4583C52.5802 22.3438 53.4896 23.2532 53.4896 24.375C53.4896 25.4968 52.5802 26.4063 51.4583 26.4063H37.9167C36.7948 26.4063 35.8854 25.4968 35.8854 24.375ZM38.5938 32.5C38.5938 31.3782 39.5032 30.4688 40.625 30.4688H51.4583C52.5802 30.4688 53.4896 31.3782 53.4896 32.5C53.4896 33.6218 52.5802 34.5313 51.4583 34.5313H40.625C39.5032 34.5313 38.5938 33.6218 38.5938 32.5ZM41.3021 40.625C41.3021 39.5032 42.2115 38.5938 43.3333 38.5938H51.4583C52.5802 38.5938 53.4896 39.5032 53.4896 40.625C53.4896 41.7468 52.5802 42.6563 51.4583 42.6563H43.3333C42.2115 42.6563 41.3021 41.7468 41.3021 40.625ZM29.7917 24.375C29.7917 27.3666 27.3665 29.7917 24.375 29.7917C21.3835 29.7917 18.9583 27.3666 18.9583 24.375C18.9583 21.3835 21.3835 18.9583 24.375 18.9583C27.3665 18.9583 29.7917 21.3835 29.7917 24.375ZM24.375 46.0417C35.2083 46.0417 35.2083 43.6166 35.2083 40.625C35.2083 37.6335 30.3581 35.2083 24.375 35.2083C18.3919 35.2083 13.5417 37.6335 13.5417 40.625C13.5417 43.6166 13.5417 46.0417 24.375 46.0417Z" fill="black"/>
<path fill-rule="evenodd" clip-rule="evenodd" d="M27.0833 10.8334H37.9167C48.1304 10.8334 53.2373 10.8334 56.4103 14.0064C59.5833 17.1794 59.5833 22.2863 59.5833 32.5C59.5833 42.7138 59.5833 47.8207 56.4103 50.9937C53.2373 54.1667 48.1304 54.1667 37.9167 54.1667H27.0833C16.8696 54.1667 11.7627 54.1667 8.58968 50.9937C5.41667 47.8207 5.41667 42.7138 5.41667 32.5C5.41667 22.2863 5.41667 17.1794 8.58968 14.0064C11.7627 10.8334 16.8696 10.8334 27.0833 10.8334ZM35.8854 24.375C35.8854 23.2532 36.7948 22.3438 37.9167 22.3438H51.4583C52.5802 22.3438 53.4896 23.2532 53.4896 24.375C53.4896 25.4969 52.5802 26.4063 51.4583 26.4063H37.9167C36.7948 26.4063 35.8854 25.4969 35.8854 24.375ZM38.5938 32.5C38.5938 31.3782 39.5032 30.4688 40.625 30.4688H51.4583C52.5802 30.4688 53.4896 31.3782 53.4896 32.5C53.4896 33.6219 52.5802 34.5313 51.4583 34.5313H40.625C39.5032 34.5313 38.5938 33.6219 38.5938 32.5ZM41.3021 40.625C41.3021 39.5032 42.2115 38.5938 43.3333 38.5938H51.4583C52.5802 38.5938 53.4896 39.5032 53.4896 40.625C53.4896 41.7469 52.5802 42.6563 51.4583 42.6563H43.3333C42.2115 42.6563 41.3021 41.7469 41.3021 40.625ZM29.7917 24.375C29.7917 27.3666 27.3665 29.7917 24.375 29.7917C21.3835 29.7917 18.9583 27.3666 18.9583 24.375C18.9583 21.3835 21.3835 18.9584 24.375 18.9584C27.3665 18.9584 29.7917 21.3835 29.7917 24.375ZM24.375 46.0417C35.2083 46.0417 35.2083 43.6166 35.2083 40.625C35.2083 37.6335 30.3581 35.2084 24.375 35.2084C18.3919 35.2084 13.5417 37.6335 13.5417 40.625C13.5417 43.6166 13.5417 46.0417 24.375 46.0417Z" fill="black"/>
</svg>
