<svg width="65" height="65" viewBox="0 0 65 65" fill="none" xmlns="http://www.w3.org/2000/svg">
<circle cx="32.5" cy="16.25" r="10.8333" fill="black"/>
<path fill-rule="evenodd" clip-rule="evenodd" d="M44.6875 59.5833C40.219 59.5833 37.9847 59.5833 36.5965 58.1951C35.2083 56.8069 35.2083 54.5727 35.2083 50.1042C35.2083 45.6356 35.2083 43.4014 36.5965 42.0132C37.9847 40.625 40.219 40.625 44.6875 40.625C49.156 40.625 51.3903 40.625 52.7785 42.0132C54.1667 43.4014 54.1667 45.6356 54.1667 50.1042C54.1667 54.5727 54.1667 56.8069 52.7785 58.1951C51.3903 59.5833 49.156 59.5833 44.6875 59.5833ZM46.2674 45.8912C46.2674 45.0187 45.56 44.3113 44.6875 44.3113C43.815 44.3113 43.1076 45.0187 43.1076 45.8912V48.5243H40.4745C39.602 48.5243 38.8947 49.2316 38.8947 50.1042C38.8947 50.9767 39.602 51.684 40.4745 51.684H43.1076V54.3171C43.1076 55.1897 43.815 55.897 44.6875 55.897C45.56 55.897 46.2674 55.1897 46.2674 54.3171V51.684H48.9005C49.773 51.684 50.4803 50.9767 50.4803 50.1042C50.4803 49.2316 49.773 48.5243 48.9005 48.5243H46.2674V45.8912Z" fill="black"/>
<path d="M41.7482 36.5825C39.0125 35.7073 35.8582 35.2083 32.5 35.2083C22.0296 35.2083 13.5417 40.0586 13.5417 46.0416C13.5417 51.839 21.5108 56.5727 31.5308 56.8611C31.4572 56.519 31.4005 56.1795 31.3556 55.846C31.1453 54.2814 31.1455 52.3697 31.1459 50.3369V49.8713C31.1455 47.8385 31.1453 45.9268 31.3556 44.3622C31.5897 42.621 32.1492 40.7152 33.7239 39.1405C35.2987 37.5658 37.2045 37.0063 38.9456 36.7722C39.7905 36.6586 40.7366 36.6064 41.7482 36.5825Z" fill="black"/>
</svg>
