<svg width="55" height="55" viewBox="0 0 55 55" fill="none" xmlns="http://www.w3.org/2000/svg">
<path fill-rule="evenodd" clip-rule="evenodd" d="M27.5 54.5834C42.4577 54.5834 54.5833 42.4577 54.5833 27.5C54.5833 12.5423 42.4577 0.416687 27.5 0.416687C12.5423 0.416687 0.416668 12.5423 0.416668 27.5C0.416668 42.4577 12.5423 54.5834 27.5 54.5834ZM29.5313 19.375C29.5313 18.2532 28.6218 17.3438 27.5 17.3438C26.3782 17.3438 25.4688 18.2532 25.4688 19.375L25.4688 25.4688H19.375C18.2532 25.4688 17.3438 26.3783 17.3438 27.5001C17.3438 28.6219 18.2532 29.5313 19.375 29.5313H25.4688V35.625C25.4688 36.7468 26.3782 37.6563 27.5 37.6563C28.6218 37.6563 29.5312 36.7468 29.5312 35.625L29.5313 29.5313H35.625C36.7468 29.5313 37.6563 28.6219 37.6563 27.5001C37.6563 26.3783 36.7468 25.4688 35.625 25.4688H29.5313V19.375Z" fill="black"/>
</svg>
