<svg width="65" height="65" viewBox="0 0 65 65" fill="none" xmlns="http://www.w3.org/2000/svg">
<path d="M5.41667 17.6042C5.41667 11.8589 5.41667 8.98631 7.20149 7.20149C8.9863 5.41667 11.8589 5.41667 17.6042 5.41667C23.3494 5.41667 26.222 5.41667 28.0068 7.20149C29.7917 8.98631 29.7917 11.8589 29.7917 17.6042C29.7917 23.3494 29.7917 26.222 28.0068 28.0069C26.222 29.7917 23.3494 29.7917 17.6042 29.7917C11.8589 29.7917 8.9863 29.7917 7.20149 28.0069C5.41667 26.222 5.41667 23.3494 5.41667 17.6042Z" fill="black"/>
<path d="M35.2083 47.3958C35.2083 41.6506 35.2083 38.778 36.9931 36.9931C38.778 35.2083 41.6506 35.2083 47.3958 35.2083C53.1411 35.2083 56.0137 35.2083 57.7985 36.9931C59.5833 38.778 59.5833 41.6506 59.5833 47.3958C59.5833 53.1411 59.5833 56.0137 57.7985 57.7985C56.0137 59.5833 53.1411 59.5833 47.3958 59.5833C41.6506 59.5833 38.778 59.5833 36.9931 57.7985C35.2083 56.0137 35.2083 53.1411 35.2083 47.3958Z" fill="black"/>
<path d="M5.41667 47.3958C5.41667 41.6506 5.41667 38.778 7.20149 36.9931C8.9863 35.2083 11.8589 35.2083 17.6042 35.2083C23.3494 35.2083 26.222 35.2083 28.0068 36.9931C29.7917 38.778 29.7917 41.6506 29.7917 47.3958C29.7917 53.1411 29.7917 56.0137 28.0068 57.7985C26.222 59.5833 23.3494 59.5833 17.6042 59.5833C11.8589 59.5833 8.9863 59.5833 7.20149 57.7985C5.41667 56.0137 5.41667 53.1411 5.41667 47.3958Z" fill="black"/>
<path d="M35.2083 17.6042C35.2083 11.8589 35.2083 8.98631 36.9931 7.20149C38.778 5.41667 41.6506 5.41667 47.3958 5.41667C53.1411 5.41667 56.0137 5.41667 57.7985 7.20149C59.5833 8.98631 59.5833 11.8589 59.5833 17.6042C59.5833 23.3494 59.5833 26.222 57.7985 28.0069C56.0137 29.7917 53.1411 29.7917 47.3958 29.7917C41.6506 29.7917 38.778 29.7917 36.9931 28.0069C35.2083 26.222 35.2083 23.3494 35.2083 17.6042Z" fill="black"/>
</svg>
